<svg width="409" height="564" version="1.1" xmlns="http://www.w3.org/2000/svg" desc="Created with imagetracer.js version 1.2.6" ><path fill="rgb(0,0,0)" stroke="rgb(0,0,0)" stroke-width="1" opacity="0" d="M 0 0 L 409 0 L 409 564 L 0 564 L 0 0 Z M 281 12 L 237 89 L 239 90 L 261 90 L 261 112 L 262 113 L 262 121 L 261 122 L 261 133 L 262 134 L 262 147 L 261 148 L 261 164 L 262 165 L 261 167 L 261 192 L 262 193 Q 264 198 261 200 L 261 245 L 262 246 L 261 250 L 261 270 L 262 271 Q 264 276 261 278 L 261 299 L 262 300 L 261 305 L 261 320 L 262 321 L 261 323 L 262 326 L 261 329 L 261 346 L 262 347 Q 264 352 261 354 L 261 375 L 262 376 L 261 379 L 261 458 L 262 459 Q 264 465 261 467 L 261 517 L 261 519 Q 260 526 264 527 Q 306 514 336 488 Q 335 485 338 486 Q 364 462 382 430 L 396 394 L 402 361 L 402 326 L 401 325 L 399 306 L 390 275 Q 376 239 352 214 L 350 212 L 348 210 Q 333 194 314 183 L 313 186 L 313 229 L 323 242 L 326 243 Q 343 264 354 292 L 358 304 L 362 323 L 362 342 L 363 343 L 363 353 L 362 354 L 361 369 L 358 384 L 353 398 Q 343 424 325 443 L 306 461 L 304 461 L 304 92 L 306 90 L 328 90 L 327 85 L 285 14 L 281 12 Z M 196 149 L 195 150 L 182 150 L 181 151 L 174 151 L 164 153 L 131 163 Q 97 177 72 200 Q 40 228 22 269 L 11 303 L 10 314 L 8 320 L 8 330 L 7 331 L 7 358 L 8 359 L 8 367 L 11 380 L 11 385 Q 15 392 16 402 Q 31 444 59 474 Q 77 493 101 507 L 132 522 L 141 524 L 144 526 L 148 526 L 149 525 L 149 408 L 172 408 L 173 407 L 130 332 L 126 330 L 82 407 L 84 408 L 106 408 L 106 462 L 90 449 L 77 434 L 60 406 L 52 385 L 47 357 L 47 329 L 48 328 L 48 319 Q 51 311 52 302 Q 56 297 56 290 L 65 271 L 83 245 Q 105 219 138 203 L 173 191 L 186 190 L 187 189 L 197 189 L 198 188 L 232 190 L 246 194 Q 250 194 250 194 L 250 155 L 245 153 L 228 150 L 196 149 Z M 205 227 L 159 304 L 161 306 L 183 306 L 183 307 L 183 533 L 188 534 L 206 534 L 207 535 L 226 534 L 227 533 L 227 306 L 250 306 L 251 305 L 207 229 L 205 227 Z " /><path fill="rgb(243,180,50)" stroke="rgb(243,180,50)" stroke-width="1" opacity="0.3764705882352941" d="M 281 12 L 285 13.5 L 327 84.5 L 328 90 L 305.5 90 L 304 91.5 L 304 460.5 L 305.5 461 L 325 442.5 Q 342.6 423.6 353 397.5 L 358 383.5 L 361 368.5 L 362 353.5 L 363 352.5 L 363 342.5 L 362 341.5 L 362 322.5 L 358 303.5 L 354 291.5 Q 343.1 263.6 326 243 L 323 241.5 L 313 228.5 L 313 185.5 L 314 183 Q 333.1 193.6 348 209.5 L 349.5 212 L 352 213.5 Q 375.6 239.4 390 274.5 L 399 305.5 L 401 324.5 L 402 325.5 L 402 360.5 L 396 393.5 L 382 429.5 Q 364.5 462.5 337.5 486 Q 335.3 485.3 336 487.5 Q 306.5 514 263.5 527 Q 259.5 525.5 261 518.5 L 261 516.5 L 261 466.5 Q 263.8 464.8 262 458.5 L 261 457.5 L 261 378.5 L 262 375.5 L 261 374.5 L 261 353.5 Q 263.5 352 262 346.5 L 261 345.5 L 261 328.5 L 262 325.5 L 261 322.5 L 262 320.5 L 261 319.5 L 261 304.5 L 262 299.5 L 261 298.5 L 261 277.5 Q 263.5 276 262 270.5 L 261 269.5 L 261 249.5 L 262 245.5 L 261 244.5 L 261 199.5 Q 263.5 198 262 192.5 L 261 191.5 L 261 166.5 L 262 164.5 L 261 163.5 L 261 147.5 L 262 146.5 L 262 133.5 L 261 132.5 L 261 121.5 L 262 120.5 L 262 112.5 L 261 111.5 L 261 90 L 238.5 90 L 237 88.5 L 281 12 Z M 283 14 L 239 88 L 261 88 L 263 91 L 263 525 Q 309 511 340 482 Q 366 458 383 424 L 396 389 L 399 373 L 399 366 L 400 365 L 400 355 L 401 354 L 400 321 L 394 292 L 389 277 Q 373 236 344 208 Q 332 195 317 186 L 315 186 L 315 230 Q 336 249 349 276 L 359 302 L 364 329 L 364 357 L 359 386 Q 349 417 330 440 L 312 458 L 306 463 L 303 463 L 302 459 L 303 456 L 303 375 L 302 374 L 303 369 L 303 356 L 302 355 L 302 346 L 303 345 L 303 328 L 302 327 Q 300 320 303 319 L 303 302 L 302 301 Q 301 295 303 294 L 303 274 L 302 273 Q 301 268 303 267 L 303 253 L 302 252 L 302 242 L 303 241 L 303 228 L 302 227 L 302 214 L 303 213 L 303 204 L 302 203 L 302 177 L 303 176 L 303 162 L 302 161 L 303 142 L 303 140 L 302 138 L 302 123 L 303 122 L 303 111 L 302 110 L 302 92 L 303 89 L 326 88 L 304 49 L 283 14 Z " /><path fill="rgb(243,180,50)" stroke="rgb(243,180,50)" stroke-width="1" opacity="0.3764705882352941" d="M 204.5 227 L 207 228.5 L 205.5 228 L 204.5 227 Z " /><path fill="rgb(243,180,50)" stroke="rgb(243,180,50)" stroke-width="1" opacity="0.3764705882352941" d="M 250.5 304 L 249.5 306 L 248 305.5 L 250.5 304 Z " /><path fill="rgb(240,233,212)" stroke="rgb(240,233,212)" stroke-width="1" opacity="0.9333333333333333" d="M 195.5 149 L 227.5 150 L 244.5 153 L 250 155 L 250 193.5 L 248.5 194 L 246.5 193 L 244.5 193 L 223.5 189 L 197.5 188 L 196.5 189 L 186.5 189 L 185.5 190 L 172.5 191 L 137.5 203 Q 105.3 218.8 83 244.5 L 65 270.5 L 56 289.5 Q 55.5 297 52 301.5 Q 51.5 311.5 48 318.5 L 48 327.5 L 47 328.5 L 47 356.5 L 48 359.5 L 48 365.5 L 52 384.5 L 60 405.5 L 77 433.5 L 90 449 L 105.5 462 L 106 408 L 83.5 408 L 82 406.5 L 95 382 Q 98 383.3 97 379.5 L 126 330 L 130 331.5 L 173 406.5 L 171.5 408 L 149 408 L 149 524.5 L 147.5 526 L 143.5 526 L 140.5 524 L 131.5 522 L 100.5 507 Q 76.8 493.2 59 473.5 Q 30.6 444.4 16 401.5 Q 15 391.5 11 384.5 L 11 378.5 L 8 366.5 L 8 358.5 L 7 357.5 L 7 330.5 L 9 321.5 L 8 319.5 L 10 313.5 L 12 298.5 L 19 276.5 L 32 248.5 Q 48.3 220.8 71.5 200 Q 96.9 177.4 130.5 163 L 163.5 153 L 173.5 151 L 180.5 151 L 181.5 150 L 194.5 150 L 195.5 149 Z " /><path fill="rgb(240,233,212)" stroke="rgb(240,233,212)" stroke-width="1" opacity="0.9333333333333333" d="M 203 228 Q 206.8 227.3 208 230.5 L 251 303.5 L 247.5 306 L 227 306 L 227 532.5 L 225.5 534 L 206.5 535 L 205.5 534 L 187.5 534 L 183 533 L 183 306.5 L 182.5 306 L 160.5 306 L 159 303.5 L 203 228 Z " /><path fill="rgb(240,170,30)" stroke="rgb(240,170,30)" stroke-width="1" opacity="0.996078431372549" d="M 282.5 14 L 304 48.5 L 326 88 L 303 89 L 302 91.5 L 302 109.5 L 303 110.5 L 303 121.5 L 302 122.5 L 302 137.5 L 303 139.5 L 303 141.5 L 302 160.5 L 303 161.5 L 303 175.5 L 302 176.5 L 302 202.5 L 303 203.5 L 303 212.5 L 302 213.5 L 302 226.5 L 303 227.5 L 303 240.5 L 302 241.5 L 302 251.5 L 303 252.5 L 303 266.5 Q 300.8 267.8 302 272.5 L 303 273.5 L 303 293.5 Q 300.5 295 302 300.5 L 303 301.5 L 303 318.5 Q 300.3 320.3 302 326.5 L 303 327.5 L 303 344.5 L 302 345.5 L 302 354.5 L 303 355.5 L 303 368.5 L 302 373.5 L 303 374.5 L 303 455.5 L 302 458.5 L 303 463 L 305.5 463 L 311.5 458 L 330 439.5 Q 349.2 417.2 359 385.5 L 364 356.5 L 364 328.5 L 359 301.5 L 349 275.5 Q 335.8 248.7 315 229.5 L 315 185.5 L 316.5 186 Q 331.9 195.1 344 207.5 Q 372.8 235.7 389 276.5 L 394 291.5 L 400 320.5 L 401 353.5 L 400 354.5 L 400 364.5 L 399 365.5 L 399 372.5 L 396 388.5 L 383 423.5 Q 366.2 457.7 339.5 482 Q 308.7 511.4 263 525 L 263 90.5 L 260.5 88 L 239 87.5 L 282.5 14 Z " /></svg>